<svg width="58" height="54" viewBox="0 0 58 54" fill="none" xmlns="http://www.w3.org/2000/svg">
<path d="M50.7749 26.9757C54.6175 24.3113 57.1414 19.8738 57.1414 14.8568C57.1414 6.72639 50.5254 0.117629 42.3909 0.117629H19.374L18.8383 0.0679866V0H0V53.9503H18.8373V53.8823L19.3643 53.8316H42.3887C50.5232 53.8316 57.1393 47.2218 57.1393 39.0957C57.1403 34.0744 54.6164 29.639 50.7749 26.9757ZM42.3898 5.35154C47.6331 5.35154 51.9002 9.61745 51.9002 14.8568C51.9002 19.6126 48.3783 23.5526 43.8046 24.2368C43.0237 16.5251 38.9738 9.7599 33.0673 5.35154H42.3898ZM19.1915 48.5966H18.6202V29.5916H38.5374C37.3289 39.6159 29.2711 47.5617 19.1915 48.5966ZM38.5374 24.3566H18.6202V5.35154H19.1958C29.2732 6.38861 37.3289 14.3355 38.5374 24.3566ZM5.24122 5.23823H13.3768V48.711H5.24122V5.23823ZM42.3898 48.5966H33.0662C38.9738 44.1883 43.0237 37.4252 43.8035 29.7114C48.3773 30.3966 51.8991 34.3345 51.8991 39.0957C51.9002 44.3339 47.6331 48.5966 42.3898 48.5966Z" fill="#FF723A"/>
</svg>
